<?xml version="1.0" encoding="utf-8"?>
<!-- Generator: Adobe Illustrator 22.0.1, SVG Export Plug-In . SVG Version: 6.00 Build 0)  -->
<svg version="1.1" xmlns="http://www.w3.org/2000/svg" xmlns:xlink="http://www.w3.org/1999/xlink" x="0px" y="0px"
	 viewBox="0 0 600 600" style="enable-background:new 0 0 600 600;" xml:space="preserve">
<style type="text/css">
	.st0{fill:#FF6C52;stroke:#8C8681;stroke-width:2;}
	.st1{fill:#FFDEAB;stroke:#8C8681;stroke-width:2;}
	.st2{fill:#5CC8E5;stroke:#8C8681;stroke-width:2;}
	.st3{fill:#FF9FB0;stroke:#8C8681;stroke-width:2;}
	.st4{fill:#DFBBBC;stroke:#8C8681;stroke-width:2;}
	.st5{fill:#FFF1A5;stroke:#8C8681;stroke-width:2;}
	.st6{fill:none;}
	.st7{fill:#83E363;stroke:#8C8681;stroke-width:2;}
	.st8{fill:#BCD5F0;stroke:#8C8681;stroke-width:2;}
	.st9{fill:#988CE1;stroke:#8C8681;stroke-width:2;}
	.st10{fill:#ACC5E2;stroke:#8C8681;stroke-width:2;}
	.st11{fill:#F898E8;stroke:#8C8681;stroke-width:2;}
	.st12{fill:#FF8695;stroke:#8C8681;stroke-width:2;}
	.st13{fill:#E9DCA5;stroke:#8C8681;stroke-width:2;}
	.st14{fill:#67D0BE;stroke:#8C8681;stroke-width:2;}
	.st15{fill:#FF66CA;stroke:#8C8681;stroke-width:2;}
	.st16{fill:#E4E0D7;stroke:#8C8681;stroke-width:2;}
	.st17{fill:#00A4DA;stroke:#8C8681;stroke-width:2;}
	.st18{fill:#FB6AD3;stroke:#8C8681;stroke-width:2;}
	.st19{fill:#FFA2E3;stroke:#8C8681;stroke-width:2;}
	.st20{font-family:'ApercuPro-Light';}
	.st21{font-size:12px;}
	.st22{font-size:7px;}
</style>
<g id="svg2" xmlns:svg="http://www.w3.org/2000/svg">
	<path id="Padre_Hurtado" class="st0" d="M70.4,413.1l20.4,20.2l-7.4,4.7l-5.2-5.2l-7.6,7.8l-4-3.1l-6.6,8.1l5.2,4.3l-4,3.8l3.6,2.1
		l-7.1,16.1l-7.8,1.2l-8.8-9.5l10.2-6.6l-3.3-3.6l4.3-3.1l-5.5-6.6l-5.7-0.9l-11.2,14l-4.3-2.1l19-19.2l-11.2-14.5v-3.1l8.8-4.7
		l5.2,8.8l5.5-2.8l5.9,5L70.4,413.1L70.4,413.1z"/>
	<path id="Maipú" class="st1" d="M90.7,433.1l-27.9-27l13.9-11.7l-14.4-10.3l4.9-16.2c1-15.6-5.3-43,3.1-46.8l37.3-9.9l-19.3-6.3
		l33.7-22l-8.1-14.6l0-5.2l35.1,7.2l-0.4,5.8l7.2-6.1l0.2,2.9l13.7,4.5l-2.8,15.3l-8.7,0.2l-0.2,20c-1.6-0.4-3.3,2.4-4.9,7.6
		l-6.3,16.2h22.9l7.2,5.8l-63.9,94.9C113.2,437.6,90.7,433.1,90.7,433.1z"/>
	<path id="Cerrillos" class="st2" d="M169.9,277.5l-2.8,15.3l-8.7,0.2l-0.2,20c-1.6-0.4-3.3,2.4-4.9,7.6l-6.3,16.2h22.9l7.2,5.8
		L165.5,360l27.3,12.1l0.5-14.2l26.1-70.4l-0.5-5.2l-35.6,9.1L169.9,277.5z"/>
	<path id="Estación_Central" class="st0" d="M157,248.8l0.8,21.5l-2-0.1l0.3,3.2l13.7,4.2l13.4,14l36.2-9.3l16.7,0.3l-0.4-9.3
		l-8.8,0.6c1.9-5.4,1-21.8,1.6-32.6l-2.1-0.6v-9.9l-17,0.8v5.4l-19.2,1.2l1,14.4c-8.2,3.4-10.2,2-13.4,1.5L157,248.8L157,248.8z"/>
	<path id="Pudahuel" class="st3" d="M80.9,97.9l22.1,21l6.8,7.8l11.4,8.5l-33.8,35.2l-0.7,18.9l4.3,0.7l0.4,2.1l2.5,3.9l3.2,3.9
		l4.3,3.2l6,1.4l1.4-3.6l2.5,3.6l6,2.1l9.6,0.4l4.6,2.1l9.2,0.4l3.2-0.4l-0.4,25.3l2.8,0.6l-0.1,11.2l11,2.5l0.6,21.4l-1.8-0.1
		l-7.4,6.2l0.5-5.9l-35.8-7.5l-1.1-7.5c-1.6-6.9-8.9-2.9-13.9-3.2c1.1,6.3-4.3,8.4-8.9,11c-2.8-5.2-12.2-4.6-18.9-6.4l-1.1,5
		c-7.8,0.7-13.9-5-16.7-2.5c-2-1.6-1-5.7-6.8-4.3c-4,0.1-6.2,1.5-2.1,7.1c-3.8,7.8-8.1,4.4-12.3,2.3l-4.3-10.2l3.3-7.8l4.8-3.8
		c-3-0.7-5.1-2.8-3.4-9.9c2.1-3.2,6-5.1,1.6-12.8l5.9-4.3l-1-6.1l17.1-6l-0.2-3.3l5.3,2.1l4.1-5.2l-1.8-10.3l3.9,0.4
		c1.4-22-7-53-2.5-68.3l17.8-1.4L80.9,97.9L80.9,97.9z"/>
	<path id="Lo_Prado" class="st4" d="M143.7,219.1l-0.2,15.4l2.8,0.6l-0.1,11.3l31.2,7.4c6.6,2.2,10.9-0.3,13.8-1.4l-1-14.4
		l-0.6-16.8l-19.9-2l-0.6,3.9l-9.8-4.5C159.3,218.6,143.7,219.1,143.7,219.1z"/>
	<path id="Cerro_Navia" class="st5" d="M86.6,189.3l0.2-5.5l13.7,0.1l0.5,1.7l5,0.1l7.7-3.9l12.1-0.1h32.1l3.4,1.4l5-3.2h3.1
		l6.7,5.1l-7,38l-9.7-4.4l-15.5,0.5l0.1-10l-3.2,0.4l-9.2-0.4l-4.6-2.1l-9.6-0.4l-6-2.1l-2.5-3.6l-1.4,3.6l-6-1.4l-4.3-3.2l-3.2-3.9
		l-2.5-3.9l-0.4-2.1L86.6,189.3L86.6,189.3z"/>
	<path id="Santiago" class="st6" d="M225.2,285.7l13.2,0.5V282h-2.8l42.8,0.9l22.3-10.3l-16.2-57.4l-48.4-13.3l0.4,3.2
		c-4.4-0.1-11.8-6.5-12.2,1.9l1.2,15.3l-16.2,0.9l0.1,8.3l17-0.8v9.9l2.1,0.6c-0.5,10.9,0.3,27.2-1.6,32.6l8.8-0.6l0.2,9.3l-10.3,0"
		/>
	<path id="Renca" class="st7" d="M125.5,138.4l-4.5-3.1l-33.8,35.2l-0.6,13.4l13.7,0.1l0.5,1.7l5,0.1l7.7-3.9l12.1-0.1h32.1l3.4,1.4
		l5-3.2h3.1l0-2.6l3.7,0.2l7.1-4h12.6l10.1,7.6l6.8,7.1l8.9,5.7l17.6,7.9l0.1-2.3l-10-10.7l-2-20.1l-2-4.1l-12.1-21.9l-4.9-12.5
		l-1.7,2.9h-1.3l-0.5-2.2l-6.6,3.2l-4.1,0.1l-8.9,11.6l-3.4,0.1l-2.7-1.3l-6.7,4.7h-5.5l-0.2-1.3l-3.4-0.2l-0.3,1.4l-3.1-0.2
		l-0.3-0.7l-3.1-0.1l-0.7,1.1l-3.1-0.2l-1,1.5l-4.9-5.5l-2.3-0.1l-1.2-1.3l-1.1,1.4H132l-3.1-3.3l-0.1-3.2L125.5,138.4L125.5,138.4z
		"/>
	<path id="Quinta_Normal" class="st8" d="M236.5,205.1l-0.4-3.2l-17.6-7.9l-8.9-5.7l-6.8-7.1l-10.1-7.6h-12.6l-7.1,4l-3.7-0.2l0,2.6
		l6.7,5.1l-6.3,34.1l19.9,2l0.6,16.8l19.2-1.2v-5.4l-0.1-8.3l16.2-0.9l-1.2-15.3C224.7,198.6,232.1,205,236.5,205.1L236.5,205.1z"/>
	<path id="Recoleta" class="st9" d="M284.5,215.2l-21.3-5.9l1.9-22.1l-4.4-0.2l0.2-17.9h-3.2l-3.3-2.5l0.4-5.8l-2.1-2.3l1.6-0.9
		l-0.2-28.6l-0.7-0.2v-4.2l0.9-0.2l0.5-3.1l25,11.9l38.6,30.4l-0.1,5.9l-9.9,6.5l-1.6,4.2l-8.9,9.2h-3.8l-5.4,4l-1.1,7.2l-4.2,8h1.3
		L284.5,215.2z"/>
	<path id="Independencia" class="st5" d="M232.7,160.2l-10.4,4.4l2,4.1l2,20.1l10,10.7l-0.1,2.3l27.1,7.4l1.9-22.1l-4.4-0.2
		l0.2-17.9h-3.2l-3.3-2.5l0.4-5.8l-2.1-2.3l-11.9-0.4L232.7,160.2L232.7,160.2z"/>
	<path id="Quilicura" class="st8" d="M106.1,116.2l-3.2,2.7l6.8,7.8l15.9,11.6l3.2,0.1l0.1,3.2l3.1,3.3h7.3l1.1-1.4l1.2,1.3l2.3,0.1
		l4.9,5.5l1-1.5l3.1,0.2l0.7-1.1l3.1,0.1l0.3,0.7l3.1,0.2l0.3-1.4l3.4,0.2l0.2,1.3h5.5l6.7-4.7l2.7,1.3l3.4-0.1l8.9-11.6l4.1-0.1
		l6.6-3.2l0.5,2.2h1.3l1.7-2.9l-8.8-22.5v-2.7l15.2-0.1l-5.7-16.2v-6.6l2-1.4l-0.1-3.6l2.9-0.9c6-16.8,6.6-8.1,11.5-13.7
		c0.3-2.1-0.2-3.7-2.2-4.1v-6v-6.2h-5.4l-2.1-4.4c-0.2-1.9,0.9-1.5,2-1.1l0.9,3.1c-0.5-3.1,3.1-7.8-7.6-6.9c-2.5-2.2-2-6-8.6-5.7
		l-3.1,1.9l-4.4-0.4l-5.6-4.7l-9.1,0.2l-2.1,11.5l-27.9,7.5l23.4,30.5h-2.6l0.1,3.1h-11.5l0.1-5H149l0.1,9.6l-1.6-0.2
		c-1.5-0.8,0.2,0.7-5.7-3.4l0.2-4.4c-2.8-3-6.8-1.5-10.5-1c2.2,1.5,4.6,3.4,5.5,3.4l-7.1-0.1c-0.1,1.2-1.1,1.9-4.2,1.4l-5,13.6h-5.4
		l-0.4,11.4l-8.7,9.2L106.1,116.2L106.1,116.2L106.1,116.2z"/>
	<path id="Conchalí" class="st2" d="M252.7,158.6l1.6-0.9l-0.2-28.6l-0.7-0.2v-4.2l0.9-0.2l0.5-3.1l-35.5-15.6l-7.6-1.2l-15.2,0.1
		v2.7l8.8,22.5l4.9,12.5l12.1,21.9l10.4-4.4l8.1-1.9L252.7,158.6z"/>
	<path id="San_Bernardo" class="st10" d="M192.9,371.7l27.9,12.1l-9.7,27.5l-4-1.6v14.2l-7.3,15l36,15.4l15.8,3.2l-16.2,65.9
		l6.1,7.3l-0.8,1.2l2,2.4l-5.3,1.6l12.1,23l-0.8,10.5h-4l-1.6-8.9l-4,0.4l-0.8-3.6l-26.7,2.4l-1.6-4.9l-2,0.4l1.6,7.7l5.3,3.2h3.2
		l0.8,1.6l5.3,0.4l-0.8,1.6l-17,4.9l-5.7-0.4l-14.6-8.1l4.4-10.5l-4.9-25.5l-3.6-0.8l-4.4-12.9l2.4-6.1l-4.4-0.8l-2.8,2l-6.9-1.2
		l1.2-6.9l5.3-14.6l-2.4-3.6h-3.6l-1.2-4.9l-0.8-3.2l-3.6-2.4l3.2-8.1l-6.1-5.7l1.6-7.7l2.4-2.8l-0.8-5.3l6.1-6.1l2-27.9l8.5-14.6
		l7.3,4.4L192.9,371.7L192.9,371.7z"/>
	<path id="El_Bosque" class="st4" d="M220.8,383.8l24.9,10.3l18.6,2.9l-12.7,60.4l-15.8-3.2l-36-15.4l7.3-15v-14.2l4,1.6
		L220.8,383.8L220.8,383.8z"/>
	<path id="La_Cisterna" class="st9" d="M264.2,397l-18.6-2.9l-24.9-10.3l18.6-47l36.5,10.3L264.2,397z"/>
	<path id="Lo_Espejo" class="st0" d="M193.3,357.9l-0.4,13.8l27.9,12.1l18.6-47l-33-14.1L193.3,357.9L193.3,357.9z"/>
	<path id="Pedro_Aguirre_Cerda" class="st7" d="M238.4,282l22,0.6l-21,54.3l-33-14.1l13.1-35.2l-0.5-5.2l6.6,0.1l-0.3,3.3l13.2,0.5
		L238.4,282L238.4,282L238.4,282z"/>
	<path id="San_Miguel" class="st11" d="M239.4,336.8l21-54.3l18,0.4l7.3,65.2l-5.9,0.1L239.4,336.8L239.4,336.8z"/>
	<path id="San_Ramón" class="st12" d="M285.7,348.1l-5.9,0.1l-3.9-1.1l-11.6,50l-2.4,11.3l32.6,3.9L285.7,348.1L285.7,348.1z"/>
	<path id="La_Granja" class="st13" d="M285.7,348.1l8.7,64.2l5.1,0.6l19.5-4.9l-3.6-15h5.7l-1.7-53.8h-7.2l-14,8.1L285.7,348.1
		L285.7,348.1z"/>
	<path id="San_Joaquín" class="st14" d="M285.7,348.1l-7.3-65.2l22.3-10.3l2.5,6.9l3,13.9l5,12.6l4.6,26l3.3,3.3l0.2,3.9h-7.2
		l-14,8.1L285.7,348.1L285.7,348.1z"/>
	<path id="La_Pintana" class="st15" d="M319,407.9l-19.5,4.9l-37.6-4.5l-10.3,49.1l-8.7,35.5l34.7,3.2l-2.7,19h3.3L277,524h22.7
		l2.5-12.8v-23.5l26.6-5.1l-0.9-8.2l-0.7-15.9l-3.6-4.9l-1.5-21.8h-1.4l-2.2-14h3.4L319,407.9L319,407.9z"/>
	<path id="Providencia" class="st16" d="M314.8,172.2l-6.4,4.1l-1.6,4.2l-8.9,9.2h-3.8l-5.4,4l-1.1,7.2l-4.2,8h1.3l-0.2,6.4
		l6.8,24.2l17-5.4l0.4,2.1l3,0.2l9.6-5.1l14.8-1.3l6.8,4.7l13.8-23.3l-3.3-3.5l-23.5-21l-8.1-3l3.9-11.3L314.8,172.2L314.8,172.2z"
		/>
	<path id="Ñuñoa" class="st17" d="M291.4,239.4l17-5.4l0.4,2.1l3,0.2l9.6-5.1l14.8-1.3l6.8,4.7l13.7-23.3l11.5,7.3l4,20.8l-1.6,13
		l-5.4,16.8l-12.1,7.5l-27.2-0.2l-22.7,2.9l-2.4-6.8L291.4,239.4L291.4,239.4z"/>
	<path id="La_Reina" class="st5" d="M356.6,211.2l11.5,7.3l4,20.8l-1.6,13l12.1,5.1l20.6,0.7l11.8-0.6l10.7,3.9l2.5-9.8l57.4,3.5
		l0.3-3.6l-3.5-6.6l-5.2-3.8l-1.5-2.1l-3.8-3.4l0.3-7l-16.4-14.4l-11.5-2.5l-9.1-4.3l-19.2,2.7l-0.7-6.7l-26.9,3.5l-34.9,0.7
		L356.6,211.2L356.6,211.2z"/>
	<path id="Macul" class="st0" d="M315.8,332l-4.6-26l-5-12.6l-3-14l22.7-2.9l27.2,0.2l12.1-7.5l-5.2,32.2l-11.5,22.5v9.5L315.8,332
		L315.8,332z"/>
	<path id="Puente_Alto" class="st8" d="M443.6,505.7c-3.8,0.9-6.9-0.7-10.1-2.4c-5.3-4.9-8.5,4-12.5,6c-5.3-1.3-10.8-4.6-16.5-2.9
		c-4.2,3.2-8.7,7.7-14.6,4.9c-4.3-4.2-9.7,2.5-9.4,7c-4.2,0.6-9.8-0.9-12.8,4c-5,15.3-3.8,10.2-10.3,9.5c-4.9,0.9-5.9,10.8-12.5,8.5
		c-1.3-5.2-4-1.1-7.4-0.6c-5.5-1.7-9.5,4.2-15.2,2.2c-5,2.3-10,2.6-15.1,0.1c-5.5-1.6-13.2-0.9-15.1,5.6l6.8-10.5l0.7-13.1l2.5-12.8
		v-23.5l26.6-5.1l-0.9-8.2l-0.7-15.9l-3.6-4.9l-1.5-21.8l14-4.9l9.5,4.2l12.1-1.5l-0.4-6.8l37.1-7.2L380,393.9l20.5,0.4l7.6,7.2
		l5.3-5.7l1.9,4.5l5.7-0.8l4.9-1.9l2.3,0.4l0.4,25.8l-11-4.2l-2.3,18.6l-3-0.4l-0.4,16.7l5.7,7.2l1.5,9.5l10.2,4.9l4.9-6.4l40.9-2.3
		l-0.4,6.4c-1.2,0-5,0.7-3.8,3c0.7,1.5,0.9,2.7,0.4,4.9c-0.5,1.9-0.7,4.5-2.7,5.7c-2,1.2-2.7,1.6-4.9,0.8c-1.4-0.5-3.2-2.1-3.8,0.4
		c-0.6,2.6,0.8,2.5,0.8,5.3c0,3-1.7,2.7-2.3,4.9c-0.4,1.7-2,3.4-4.2,3.4c-1.7,0-4.2-0.1-4.5-1.5c-0.1-0.3-0.7-4.8-1.1-4.9
		c-1-0.2-5.1-0.3-3.8,2.3c0.7,1.4,1.1,3.1,0,5.3C444.3,504.1,444,504.9,443.6,505.7L443.6,505.7z"/>
	<path id="Pirque" class="st7" d="M363.7,549.6c0.4-5-6,4.2-8.7,4.3c-5.3,1.5-10.8,2.4-15.9,4.6c-2.7,3.3-5.4,7.6-9.2,6.7
		c-4.4,4-10.6,1.6-15.8,1.7c-3.1,3.2-11.1,5.7-12.6-0.2c0.7-3.6,10.3-9.3,1.6-9.2c-5.9,0.3-11.1-3.9-11-9.8
		c1.9-6.5,9.6-7.2,15.1-5.6c5.1,2.5,10.1,2.1,15.1-0.1c5.7,2.1,9.7-3.9,15.2-2.2c3.4-0.5,6.1-4.7,7.4,0.6c6.6,2.3,7.5-7.6,12.5-8.5
		c6.5,0.7,5.2,5.8,10.3-9.5c3-4.9,8.6-3.4,12.8-4c-0.3-4.5,5-11.2,9.4-7c5.9,2.8,10.4-1.7,14.6-4.9c5.8-1.7,11.3,1.6,16.5,2.9
		c4-2,7.2-10.9,12.5-6c3.2,1.6,6.4,3.2,10.1,2.4l0.8-0.8l1.5,3l-9.1,0.4l-11.4,3.8v8.3l3.8,3.4l-13.3,2.7l-4.5,4.5v-5.3l-13.6,2.3
		l1.1-4.9l-11,5.3l0.8,13.3l-10.6,4.5l-0.8-8.7l-8.3,3.8l4.2,5.3L363.7,549.6L363.7,549.6z M468.6,487.5c-2,1.2-2.7,1.6-4.9,0.8
		c-1.4-0.5-3.2-2.1-3.8,0.4c-0.6,2.6,0.8,2.5,0.8,5.3c0.2-0.1,0.4-0.2,0.6-0.3c0.4-0.4,0.6-0.9,1.2-1.2c0.5-0.2,1-0.6,1.9-0.6
		c0.8,0,1.6,0,2.4,0c0.6,0,1.3,0,1.9-0.1c0.5-0.1,1.2-0.4,1.4-0.9c0.3-0.6,0.5-0.9,0.2-1.7c-0.2-0.9-0.3-0.8-1-1.2
		C469,487.7,468.8,487.6,468.6,487.5L468.6,487.5z M471.2,481.8c-1.6,2.4,4.3-3.5,5.6-4.2c2-1,3.7-2.4,5.4-3.7
		c1.9-1.5,3.3-3.7,5.4-4.9c1.6-1.6,4-0.3,5.7,0.3c1.8,1,4.5,0.9,5.1-1.4c1.2-1.6,1.6-3.5,1.6-5.5c0.9-3,1.8,1.7,3.1,2.1
		c1.8,1.6,4.1,1.6,5.9-0.1c1.7-2,4.4-1,6.7-1.2c2.3,0,4.7,0.5,6.8-0.8c1.4-1.4,1.8-4.8-0.1-6.1c-1.8-0.1-3.5-0.7-5.4-0.4
		c-2.1-0.4-4.2,0.9-5.5,2.5c-1.2,1.4-3.5,1.2-5,0.5c-1.9-0.8-3.4-2.4-5.4-3.1c-1.6-0.6-4-1.2-5.3,0.1c-1.7,1.8-1,3.9-1.4,5.8
		c-0.7,1.6-0.6,3.1-2.9,2c-1.3-1.2-3.1-2.9-4.7-1.2c-2.4,2.7-5.1,5.2-7.7,7.8c-1.9,1.1-4.4,0.6-4.5,3.6c-1.2,0-5,0.7-3.8,3
		C471.6,478.3,471.8,479.6,471.2,481.8z M544.4,443l-0.8-1c-1.3-1.3-2.4-2.7-3.5-4.1c-0.9-1-2.3-1.5-3.6-1.3c-1.1,0-2.5,0.2-3.1,1.3
		c-1.2,1.6-1.6,3.5-2.5,5.2c-0.9,1.4-2.5,2.7-4.3,2.3c-1.4-0.2-2.5-1.1-3.6-1.8c-1.2-0.5-2.5-0.5-3.8-0.4c-1,0.8,0.4,1.7,1,2.3
		l-0.3,2.6c3.1-2.4,5.8,3.1,9.3,1.7c3.7-0.1,5.2-4.3,8.1-5.8C539.8,445.8,541.8,443,544.4,443L544.4,443z"/>
	<path id="San_José_de_Maipo" class="st2" d="M519.9,448.3l0.3-2.6c-0.6-0.5-2-1.4-1-2.3c1.3-0.1,2.6-0.2,3.8,0.4
		c1.2,0.7,2.2,1.6,3.6,1.8c1.8,0.4,3.4-0.9,4.3-2.3c0.9-1.7,1.3-3.6,2.5-5.2c0.6-1.1,2-1.3,3.1-1.3c1.3-0.2,2.7,0.3,3.6,1.3
		c1.1,1.4,2.2,2.9,3.5,4.1l0.8,1c3.1,2.2,6.4,0.9,9.6-0.2c3.1,0.6,6-0.9,8.8-2c3.1-0.4,6.7-0.7,9.5,0.8c2.9,3.7,2.7-4.2,0.1-4.1
		c-3.3-2-6.5,1.4-9.9,1.1c-1-1.4-3.7-1.6-5.8-2.6c-2.9,0.8-3.1-4.2-5-3.3c-1.3,3.6-6.5,2.7-7.3-0.7c-2.7-1.6-0.6-7.9-4.3-7.4
		c-0.8,1.9-2.5,3.8-2.6,5.8c3.5,3.6-3.3,3.2-5.4,2.7c-3,1.6-6.8,1.3-7.8-2.6c-2,0.8-2.5,4.5-5.1,5.3c1.7,1.8,1.9,5.3-1.4,7
		c-1.2,1.5-1.6,7.7-4.4,4.4c-1.1-3.4-2.8,0.2-2,1.9c-1.3,3.7-6.3,3.9-6.5-0.6c-1.2,1.8-3.7,6.5-6,2.6c-1.4-4.5-5.5,4-7.9-0.2
		c-4.6-2.4-7.3,3.1-7.7,6.9c-0.3,3.8-1.7,9.8-0.4,8.5c1.3-1.3,2.6-2.6,3.8-3.9c1.6-1.7,3.4,0,4.7,1.2c2.3,1.1,2.2-0.4,2.9-2
		c0.3-1.9-0.3-3.9,1.4-5.8c1.3-1.3,3.7-0.8,5.3-0.1c2,0.7,3.5,2.3,5.4,3.1c1.5,0.7,3.8,0.9,5-0.5c1.3-1.6,3.4-2.9,5.5-2.5
		c1.8-0.3,3.6,0.4,5.4,0.4l0.1-1.9C521.9,452.5,517.6,450.5,519.9,448.3L519.9,448.3z"/>
	<path id="La_Florida" class="st3" d="M315.8,332l3.3,3.3l0.2,3.9l1.7,53.8h-5.7l3.6,15l2.9,9.9h-3.4l2.2,14h1.4l14-4.9l9.5,4.2
		l12.1-1.5l-0.4-6.8l37.1-7.2L380,393.9l20.5,0.4l7.6,7.2l5.1-5.4l5.9-5.1l-3.3-9.4l-8.1-6.1l0.6-2.1h8.7l-0.6-11.3l25.7,2.3
		l-0.4-10.5l-14.6-1.2l-0.3-15.7l4.2-5.1h-6.5l-3.6,3.6l-4.9,1.6l-27.3-0.6l-40-3.1L315.8,332L315.8,332z"/>
	<path id="Peñalolén" class="st1" d="M485.6,255.2l-57.4-3.5l-2.5,9.8l-10.7-3.9l-11.8,0.6l-20.6-0.7l-12.1-5.1l-5.4,16.8
		l-5.2,32.2l-11.5,22.5l0.1,9.5l40,3.1l27.3,0.6l4.9-1.6l3.6-3.6h6.5l2.2-3.6l2.6,0.3l12.3-10.9l11.8-0.3l4.3-3.7l7.2-0.3v-3.7
		l12.9,6l7.7,0.9l11.8-10h9.5l4.6-3.7l4.3-0.6l11.8,5.2l7.5-0.3l10-5.4l6.6,0.3l-0.3-5.4l-2-4.9l-9.7-1.1l-3.2-2.6l-4.9-0.3
		l-6.9-8.6h-2.6l-2.9-2.6l-14.9-0.6l-6.9-4.9l-0.6-4l-6.3-6.9L485.6,255.2L485.6,255.2z"/>
	<path id="Las_Condes" class="st18" d="M555.5,291.7l-9.7-1.1l-3.2-2.6l-4.9-0.3l-6.9-8.6h-2.6l-2.9-2.6l-14.9-0.6l-6.9-4.9l-0.6-4
		l-6.3-6.9l-11.1-4.9l0.3-3.6l-3.5-6.6l-5.2-3.8l-1.5-2.1l-3.8-3.4l0.3-7l-16.4-14.4l-11.5-2.5l-9.1-4.3l-19.2,2.7l-0.7-6.7
		l-26.9,3.5l-34.9,0.8l-23.4-20.9l-8.1-3l3.9-11.3l91.9-39.3l9.1-11.1l21.3-10.1l11.9-1.3l7.8-5.1l4.6,0.3l5.6-4.8l12.2,1.8h8.9v7.3
		l-5.8,4.1l-2.5,7.1v2.8l6.1,7.6l2,4.3l-0.5,5.6l3,1.5l1.5-0.3l10.4,6.6l17.7,3.5l3,4.6l-0.5,23.3l1.5,1.3v5.1l13.2,9.1l11.6,1.5
		l4.8,19l-1.3,6.1l5.1,9.9l1.3,18.7l-7.6,6.3l-2.5,6.8l3.5,5.1l-1,13.9h-2.3L555.5,291.7L555.5,291.7z"/>
	<path id="Vitacura" class="st19" d="M318.8,153.3c-0.7,3.4,0.1,7.1-0.3,10.5l-0.1,5.9l-3.6,2.4l11,0.2l91.9-39.3l9.1-11.1l13.8-6.6
		L437,111l-27,1.9l-8.2-5.7l-10.3-9.9l-6.7-3.6h-8l-1.3-1.5l-2.9-0.4l-1.9-2.9l-3.8,0.4l-2.9,2.3l-3.3-6.5l-6.5-3.5l-2.3,5l-2.9,1.7
		l-8.4,0.6l-6.1,6.9l-5.2,5.5l4.8,4l-0.8,12.2l-2.9,2.7l0.2,7.3l0.2,0.3l-4.5,2L326,134l2.2,3.5l-0.2,5.3l-4.9,4.1L318.8,153.3
		L318.8,153.3z"/>
	<path id="Lo_Barnechea" class="st2" d="M364,91.8l2.9-2.3l3.8-0.4l1.9,2.9l2.9,0.4l1.3,1.5h8l6.7,3.6l10.3,9.9l8.2,5.7l27-1.9
		l3.6,4.2l7.5-3.5l11.9-1.3l7.8-5.1l4.6,0.3l5.6-4.8l12.2,1.8h8.9l0.3,0.2l6.1-1.2l1.4,3.1l5.6-0.9l-0.2,4l1.9,2.8l13.2-11.5v-2.3
		l6.3-4l0.2-7l20.2-3.1l4.5-3.3l6.3-12.9l-45.3-28.2l-3.3-0.5l-6.8,5.9l-8.5-9.4L471.8,42l-23.3-8.7l-13.6-8l-25.1,2.6v2.8l-7.5,6.3
		l-4.2-3.3l2.1-3.5l-5.2-0.9l-0.9,3.3l-5.2-1.4l-4.2,1.9l-0.5,3.8l3.8,5.9l10.6,8.2l-3.5,1.2l0.7,4.7l-4.2,2.6l-3.5-8.5l-2.8,0.2
		l-2.3,2.3l-7.5,3.8l-0.5,6.8l2.8,3.5l-9.9,5.6l3.1,4.9l-7.3,6.3L364,91.8L364,91.8z"/>
	<path id="Huechuraba" class="st5" d="M205.9,81.9v6.6l5.7,16.2l7.6,1.2l35.5,15.6l25,11.9l38.6,30.4c0.5-3.4-0.4-7.1,0.3-10.5
		l4.4-6.4l4.9-4.1l0.2-5.3l0.4,0.7l-6.5-6.5l-3,0.5l-4.4-3.5h7.6l0.3-4.1l-9.8-1.1l0.5-2.2l6.5-6.8l-7.4-0.8l-0.8,2.5h-3.3l-0.5,1.4
		l-3-0.5l-1.1,4.4l-14.2-6l1.9-14.7l-4.1-5.2l-4.9-0.3l-5.7,3.5l-4.1,9l-4.4-0.5l-2.2,4.9l-7.6-3.5l2.5-6l-4.9-0.3l3.8-10.6l-1.9-3
		l-7.6,0.3v-4.1l-9-2.2l3.3-10.9l-4.1-3.8l0.8-2.2l-6.5-3.3l-0.8,3.3h-3.8l-0.8-1.4h-2.2l0.8,2.7l-4.6,4.6h-4.4l0.5,2.7l-3.3,3.3
		h-3.8l-1.9,4.4L205.9,81.9L205.9,81.9z"/>
</g>
<g id="Capa_2">
	<rect x="393.6" y="287.2" class="st6" width="78.1" height="13"/>
	<text transform="matrix(1 0 0 1 399.9998 295.6951)" class="st20 st21">PEÑALOLEN</text>
	<rect x="332.5" y="480" class="st6" width="78.1" height="13"/>
	<text transform="matrix(1 0 0 1 334.5063 488.5425)" class="st20 st21">PUENTE ALTO</text>
	<rect x="463.3" y="421.3" class="st6" width="78.1" height="13"/>
	<text transform="matrix(1 0 0 1 470.8349 426.2973)" class="st20 st22">SAN JOSÉ DE MAIPO</text>
	<g>
		<path d="M317.7,556.3l0.9,3.3l-0.7,0.2l-2-7.3l2.5-0.7c1.3-0.4,2.3,0.2,2.7,1.4s-0.2,2.2-1.5,2.6L317.7,556.3z M320.3,553.4
			c-0.2-0.8-0.8-1.3-1.8-1l-1.8,0.5l0.8,2.7l1.8-0.5C320.4,554.8,320.6,554.1,320.3,553.4z"/>
		<path d="M324.5,557.9l-0.7,0.2l-2-7.3l0.7-0.2L324.5,557.9z"/>
		<path d="M327.3,553.2l-1.4,0.4l1,3.6l-0.7,0.2l-2-7.3l2.3-0.7c1.3-0.4,2.3,0,2.6,1.3c0.3,1.1-0.1,1.8-1.1,2.3l3.3,3l-0.8,0.2
			L327.3,553.2z M325,550.6l0.7,2.4l1.6-0.5c0.9-0.3,1.3-0.8,1.1-1.6c-0.2-0.8-0.8-1.1-1.8-0.8L325,550.6z"/>
		<path d="M337.3,550.4c0.3,1.1,0.2,2-0.1,2.8l0.9,0.5l-0.3,0.6l-0.9-0.5c-0.4,0.6-1,1-1.7,1.2c-1.7,0.5-3.6-0.5-4.2-2.8
			c-0.6-2.3,0.4-4.1,2.2-4.6S336.6,548.1,337.3,550.4z M335.6,552.3l1,0.6c0.2-0.6,0.2-1.4,0-2.3c-0.6-2-2-2.8-3.3-2.4
			c-1.4,0.4-2.2,1.7-1.6,3.8c0.6,2,2,2.8,3.3,2.4c0.5-0.2,1-0.5,1.3-0.9l-1-0.6L335.6,552.3z"/>
		<path d="M337.7,546.3l0.7-0.2l1.4,5c0.3,0.9,1.1,1.5,2.3,1.2c1.2-0.3,1.6-1.3,1.3-2.2l-1.4-5l0.7-0.2l1.4,5
			c0.5,1.6-0.5,2.7-1.8,3.1c-1.3,0.4-2.7-0.1-3.2-1.7L337.7,546.3z"/>
		<path d="M348.4,543.3l0.2,0.6l-3.4,1l0.7,2.4l2.8-0.8l0.2,0.6l-2.8,0.8l0.8,2.9l3.5-1l0.2,0.6l-4.2,1.2l-2-7.3L348.4,543.3z"/>
	</g>
	<rect x="328.4" y="368.2" class="st6" width="78.1" height="13"/>
	<text transform="matrix(1 0 0 1 335.6225 376.7272)" class="st20 st21">LA FLORIDA</text>
	<g>
		<path d="M324.5,299.8v2.5H324v-5.5h1.9c1,0,1.6,0.6,1.6,1.5s-0.6,1.5-1.6,1.5H324.5z M326.9,298.2c0-0.6-0.3-1-1-1h-1.4v2h1.4
			C326.6,299.3,326.9,298.8,326.9,298.2z"/>
		<path d="M328.4,296.7h0.5v3.8c0,0.7,0.4,1.3,1.4,1.3s1.4-0.6,1.4-1.3v-3.8h0.5v3.7c0,1.2-0.9,1.8-1.9,1.8s-1.9-0.6-1.9-1.8V296.7z
			"/>
		<path d="M336.5,296.7v0.5h-2.6v1.8h2.1v0.5h-2.1v2.2h2.7v0.5h-3.2v-5.5H336.5z"/>
		<path d="M341.4,296.7v5.5h-0.6l-2.7-4.6v4.6h-0.5v-5.5h0.6l2.7,4.7v-4.7H341.4z"/>
		<path d="M342.2,296.7h3.8v0.5h-1.6v5h-0.5v-5h-1.6V296.7z"/>
		<path d="M350,296.7v0.5h-2.6v1.8h2.1v0.5h-2.1v2.2h2.7v0.5h-3.2v-5.5H350z"/>
		<path d="M330.7,306.1l2,5.5h-0.5l-0.5-1.6h-2.3l-0.5,1.6h-0.5l2-5.5H330.7z M329.5,309.6h1.9l-1-2.7L329.5,309.6z"/>
		<path d="M333.9,306.1v5h2.6v0.5h-3.1v-5.5H333.9z"/>
		<path d="M336.1,306.1h3.8v0.5h-1.6v5h-0.5v-5h-1.6V306.1z"/>
		<path d="M345.1,308.9c0,1.7-1.1,2.8-2.4,2.8s-2.4-1.1-2.4-2.8c0-1.7,1.1-2.8,2.4-2.8S345.1,307.1,345.1,308.9z M340.9,308.9
			c0,1.5,0.8,2.3,1.9,2.3s1.9-0.8,1.9-2.3s-0.8-2.3-1.9-2.3S340.9,307.3,340.9,308.9z"/>
	</g>
	<g>
		<path d="M293.7,288.5c0.5-0.4,0.5-0.8,0.5-1.1c-0.1-0.6-0.6-0.7-1.1-0.6c-1.5,0.3-0.4,2.8-2.4,3.3c-1.1,0.2-1.9-0.4-2.1-1.3
			c-0.2-1,0.3-1.8,1.2-2.2l0.4,0.4c-0.7,0.4-1.3,0.8-1.1,1.7c0.1,0.6,0.7,1,1.5,0.9c1.5-0.3,0.5-2.8,2.3-3.3
			c0.9-0.2,1.6,0.3,1.8,1.1c0.2,0.9-0.1,1.3-0.6,1.7L293.7,288.5z"/>
		<path d="M295.7,292.3l-5.5,3.5l-0.1-0.6l1.6-1l-0.6-2.5l-1.8-0.2l-0.1-0.6l6.5,0.8L295.7,292.3z M291.6,291.8l0.5,2.1l2.8-1.7
			L291.6,291.8z"/>
		<path d="M297.3,299.5l-6,1.3l-0.2-0.7l4.4-4.1l-5.1,1.1l-0.1-0.6l6-1.3l0.2,0.7l-4.4,4.1l5.1-1.1L297.3,299.5z"/>
		<path d="M298.7,305.5l0.1,0.6l-4.3,1c-1.2,0.3-2-0.4-2.2-1.3c-0.2-1.1,0.4-1.8,1.2-2l0.3,0.6c-0.7,0.2-1,0.7-0.9,1.4
			c0.1,0.6,0.6,1,1.5,0.8L298.7,305.5z"/>
		<path d="M297.2,313.1c-1.9,0.4-3.3-0.5-3.7-1.9c-0.3-1.4,0.6-2.9,2.5-3.3c1.9-0.4,3.3,0.5,3.7,1.9
			C300,311.2,299.1,312.7,297.2,313.1z M296.2,308.5c-1.7,0.4-2.3,1.5-2.1,2.6c0.3,1.1,1.3,1.9,3,1.5c1.7-0.4,2.3-1.5,2.1-2.6
			C298.9,308.8,297.9,308.1,296.2,308.5z"/>
		<path d="M300.9,315.6l-5.5,3.5l-0.1-0.6l1.6-1l-0.6-2.5l-1.8-0.2l-0.1-0.6l6.5,0.8L300.9,315.6z M296.9,315.1l0.5,2.1l2.8-1.7
			L296.9,315.1z"/>
		<path d="M299.7,324.1c-0.9,0.2-1.7,0.1-2.3-0.2l-0.4,0.7l-0.5-0.3l0.4-0.7c-0.5-0.4-0.8-0.9-0.9-1.5c-0.3-1.4,0.6-2.9,2.5-3.3
			c1.9-0.4,3.3,0.5,3.7,1.9C302.5,322.2,301.6,323.6,299.7,324.1z M298.2,322.6l-0.5,0.8c0.5,0.2,1.1,0.2,1.8,0.1
			c1.7-0.4,2.3-1.5,2.1-2.6c-0.3-1.1-1.3-1.9-3-1.5c-1.7,0.4-2.3,1.5-2.1,2.6c0.1,0.4,0.3,0.8,0.7,1.1l0.5-0.8L298.2,322.6z"/>
		<path d="M303,324.6l0.1,0.6l-4.1,0.9c-0.7,0.2-1.3,0.8-1.1,1.8c0.2,1,1,1.3,1.7,1.2l4.1-0.9l0.1,0.6l-4.1,0.9
			c-1.3,0.3-2.2-0.5-2.5-1.6s0.2-2.2,1.5-2.5L303,324.6z"/>
		<path d="M306,330.1l0.2,0.8l-1.4-0.7l-0.1-0.4L306,330.1z M298.3,332l-0.1-0.6l6-1.3l0.1,0.6L298.3,332z"/>
		<path d="M305.6,336.3l-6,1.3l-0.2-0.7l4.4-4.1l-5.1,1.1l-0.1-0.6l6-1.3l0.2,0.7l-4.4,4.1l5.1-1.1L305.6,336.3z"/>
	</g>
	<g>
		<path d="M302.3,363.1v4.2h2.2v0.4h-2.6v-4.6H302.3z"/>
		<path d="M306.9,363.1l1.7,4.6h-0.4l-0.5-1.3h-1.9l-0.5,1.3h-0.4l1.7-4.6H306.9z M305.9,365.9h1.6l-0.8-2.3L305.9,365.9z"/>
		<path d="M296.6,374.8c-0.2,0.5-0.8,0.8-1.4,0.8c-1,0-2-0.8-2-2.3s1-2.3,2-2.3c0.9,0,1.5,0.5,1.8,1.3l-0.4,0.1
			c-0.2-0.7-0.7-1-1.3-1c-0.9,0-1.6,0.7-1.6,1.9s0.7,1.9,1.6,1.9c0.9,0,1.4-0.5,1.4-1.6h-1.1v-0.4h1.5v2.3h-0.4L296.6,374.8z"/>
		<path d="M299.4,373.2h-0.9v2.3h-0.4v-4.6h1.5c0.8,0,1.3,0.4,1.3,1.2c0,0.7-0.4,1.1-1,1.1l1.4,2.3h-0.5L299.4,373.2z M298.5,371.3
			v1.5h1c0.6,0,0.9-0.2,0.9-0.8c0-0.5-0.3-0.8-0.9-0.8H298.5z"/>
		<path d="M303.8,370.9l1.7,4.6H305l-0.5-1.3h-1.9l-0.5,1.3h-0.4l1.7-4.6H303.8z M302.8,373.8h1.6l-0.8-2.3L302.8,373.8z"/>
		<path d="M309.3,370.9v4.6h-0.5l-2.3-3.9v3.9h-0.4v-4.6h0.5l2.3,3.9v-3.9H309.3z"/>
		<path d="M312.2,370.9h0.4v3.2c0,0.9-0.6,1.4-1.3,1.4c-0.8,0-1.2-0.6-1.3-1.2l0.4-0.1c0.1,0.5,0.3,0.9,0.9,0.9
			c0.5,0,0.9-0.3,0.9-0.9V370.9z"/>
		<path d="M315.2,370.9l1.7,4.6h-0.4l-0.5-1.3h-1.9l-0.5,1.3h-0.4l1.7-4.6H315.2z M314.2,373.8h1.6l-0.8-2.3L314.2,373.8z"/>
	</g>
	<rect x="248.3" y="456.5" class="st6" width="78.1" height="13"/>
	<text transform="matrix(1 0 0 1 255.7072 464.9863)" class="st20 st21">LA PINTANA</text>
	<rect x="169.3" y="468.5" class="st6" width="78.1" height="35.3"/>
	<text transform="matrix(1 0 0 1 197.624 477.0203)"><tspan x="0" y="0" class="st20 st21">SAN </tspan><tspan x="-20.1" y="14.4" class="st20 st21">BERNARDO</tspan></text>
	<rect x="193.5" y="403.9" class="st6" width="78.1" height="35.3"/>
	<text transform="matrix(1 0 0 1 226.0644 412.3799)"><tspan x="0" y="0" class="st20 st21">EL </tspan><tspan x="-16.3" y="14.4" class="st20 st21">BOSQUE</tspan></text>
	<g>
		<path d="M260.4,318.3c-0.3-0.5-0.6-0.6-0.9-0.6c-0.5,0-0.8,0.4-0.8,0.8c0,1.4,2.4,0.9,2.4,2.7c0,1-0.7,1.6-1.6,1.6
			c-0.9,0-1.5-0.6-1.7-1.5l0.5-0.3c0.2,0.7,0.5,1.3,1.2,1.3c0.6,0,1-0.4,1-1.1c0-1.4-2.4-1-2.4-2.7c0-0.8,0.6-1.4,1.3-1.4
			c0.8,0,1.1,0.4,1.3,0.9L260.4,318.3z"/>
		<path d="M264.1,317.2l2,5.5h-0.5l-0.6-1.6h-2.3l-0.6,1.6h-0.5l2-5.5H264.1z M262.9,320.7h1.9l-1-2.8L262.9,320.7z"/>
		<path d="M270.7,317.2v5.5h-0.6l-2.7-4.7v4.7h-0.5v-5.5h0.6l2.7,4.7v-4.7H270.7z"/>
		<path d="M252.7,326.7l1.6,4.2l1.6-4.2h0.6v5.5h-0.5v-4.5l-1.6,4h-0.3l-1.6-4v4.5H252v-5.5H252.7z"/>
		<path d="M258.4,332.2h-0.5v-5.5h0.5V332.2z"/>
		<path d="M263.7,331.4c-0.3,0.6-0.9,0.9-1.6,0.9c-1.2,0-2.4-0.9-2.4-2.8c0-1.9,1.2-2.8,2.4-2.8c1.1,0,1.9,0.6,2.1,1.6l-0.5,0.1
			c-0.2-0.8-0.8-1.3-1.6-1.3c-1.1,0-1.9,0.8-1.9,2.3c0,1.5,0.8,2.3,1.9,2.3c1.1,0,1.6-0.6,1.6-1.9h-1.3v-0.5h1.8v2.8h-0.5
			L263.7,331.4z"/>
		<path d="M265.3,326.7h0.5v3.8c0,0.7,0.5,1.3,1.4,1.3s1.4-0.6,1.4-1.3v-3.8h0.5v3.8c0,1.2-0.9,1.8-1.9,1.8s-1.9-0.6-1.9-1.8V326.7z
			"/>
		<path d="M273.5,326.7v0.5h-2.6v1.8h2.1v0.5h-2.1v2.2h2.7v0.5h-3.2v-5.5H273.5z"/>
		<path d="M275.1,326.7v5h2.6v0.5h-3.1v-5.5H275.1z"/>
	</g>
	<g>
		<path d="M220.7,301v2.4h-0.5V298h1.8c1,0,1.5,0.6,1.5,1.5c0,0.9-0.6,1.5-1.5,1.5H220.7z M223.1,299.5c0-0.6-0.3-1-1-1h-1.3v2h1.3
			C222.8,300.5,223.1,300.1,223.1,299.5z"/>
		<path d="M227.5,298v0.5H225v1.8h2.1v0.5H225v2.1h2.6v0.5h-3.1V298H227.5z"/>
		<path d="M230.1,298c1.4,0,2.4,1,2.4,2.7c0,1.7-1.1,2.7-2.4,2.7h-1.4V298H230.1z M229.2,298.5v4.4h0.9c1,0,1.9-0.7,1.9-2.2
			c0-1.5-0.9-2.2-1.9-2.2H229.2z"/>
		<path d="M235,300.7h-1v2.7h-0.5V298h1.7c1,0,1.5,0.4,1.5,1.4c0,0.8-0.4,1.2-1.2,1.3l1.7,2.7h-0.6L235,300.7z M234,298.5v1.8h1.2
			c0.7,0,1-0.3,1-0.9c0-0.6-0.4-0.9-1-0.9H234z"/>
		<path d="M242.4,300.7c0,1.7-1.1,2.7-2.4,2.7c-1.3,0-2.4-1-2.4-2.7c0-1.7,1.1-2.7,2.4-2.7C241.3,297.9,242.4,299,242.4,300.7z
			 M238.2,300.7c0,1.5,0.8,2.3,1.8,2.3c1,0,1.8-0.8,1.8-2.3c0-1.5-0.8-2.3-1.8-2.3C239,298.4,238.2,299.2,238.2,300.7z"/>
		<path d="M218.8,307.2l1.9,5.4h-0.5l-0.5-1.5h-2.2l-0.5,1.5h-0.5l1.9-5.4H218.8z M217.6,310.6h1.9l-0.9-2.7L217.6,310.6z"/>
		<path d="M225,311.7c-0.3,0.5-0.9,0.9-1.6,0.9c-1.2,0-2.4-0.9-2.4-2.7c0-1.8,1.1-2.7,2.4-2.7c1.1,0,1.8,0.6,2.1,1.6l-0.5,0.1
			c-0.2-0.8-0.8-1.2-1.6-1.2c-1.1,0-1.8,0.8-1.8,2.3s0.8,2.3,1.8,2.3c1,0,1.6-0.6,1.6-1.8h-1.2v-0.5h1.7v2.7h-0.4L225,311.7z"/>
		<path d="M226.6,307.2h0.5v3.7c0,0.7,0.4,1.3,1.3,1.3s1.3-0.6,1.3-1.3v-3.7h0.5v3.6c0,1.2-0.9,1.8-1.8,1.8s-1.8-0.6-1.8-1.8V307.2z
			"/>
		<path d="M232,312.6h-0.5v-5.4h0.5V312.6z"/>
		<path d="M234.8,309.9h-1v2.7h-0.5v-5.4h1.7c1,0,1.5,0.4,1.5,1.4c0,0.8-0.4,1.2-1.2,1.3l1.7,2.7h-0.6L234.8,309.9z M233.8,307.7
			v1.8h1.2c0.7,0,1-0.3,1-0.9c0-0.6-0.4-0.9-1-0.9H233.8z"/>
		<path d="M239.3,309.9h-1v2.7h-0.5v-5.4h1.7c1,0,1.5,0.4,1.5,1.4c0,0.8-0.4,1.2-1.2,1.3l1.7,2.7H241L239.3,309.9z M238.3,307.7v1.8
			h1.2c0.7,0,1-0.3,1-0.9c0-0.6-0.4-0.9-1-0.9H238.3z"/>
		<path d="M245.4,307.2v0.5h-2.5v1.8h2.1v0.5h-2.1v2.1h2.6v0.5h-3.1v-5.4H245.4z"/>
		<path d="M224.4,320.3c-0.3,0.9-1,1.5-2,1.5c-1.2,0-2.4-0.9-2.4-2.7c0-1.9,1.2-2.7,2.4-2.7c1,0,1.8,0.6,2,1.5l-0.5,0.1
			c-0.2-0.7-0.7-1.2-1.5-1.2c-1.1,0-1.8,0.8-1.8,2.3c0,1.5,0.8,2.3,1.8,2.3c0.8,0,1.3-0.5,1.5-1.2L224.4,320.3z"/>
		<path d="M228.5,316.4v0.5H226v1.8h2.1v0.5H226v2.1h2.6v0.5h-3.1v-5.4H228.5z"/>
		<path d="M231.1,319.1h-1v2.7h-0.5v-5.4h1.7c1,0,1.5,0.4,1.5,1.4c0,0.8-0.4,1.2-1.2,1.3l1.7,2.7h-0.6L231.1,319.1z M230.1,316.9
			v1.8h1.2c0.7,0,1-0.3,1-0.9c0-0.6-0.4-0.9-1-0.9H230.1z"/>
		<path d="M235.5,316.4c1.4,0,2.4,1,2.4,2.7c0,1.7-1.1,2.7-2.4,2.7h-1.4v-5.4H235.5z M234.6,316.9v4.4h0.9c1,0,1.9-0.7,1.9-2.2
			c0-1.5-0.9-2.2-1.9-2.2H234.6z"/>
		<path d="M240.7,316.4l1.9,5.4h-0.5l-0.5-1.5h-2.2l-0.5,1.5h-0.5l1.9-5.4H240.7z M239.6,319.8h1.9l-0.9-2.7L239.6,319.8z"/>
	</g>
	<g>
		<path d="M210,344v4.9h2.5v0.5h-3.1V344H210z"/>
		<path d="M217.7,346.7c0,1.7-1.1,2.8-2.4,2.8c-1.3,0-2.4-1.1-2.4-2.8c0-1.7,1.1-2.8,2.4-2.8C216.6,343.9,217.7,345,217.7,346.7z
			 M213.5,346.7c0,1.5,0.8,2.3,1.8,2.3s1.8-0.8,1.8-2.3s-0.8-2.3-1.8-2.3S213.5,345.2,213.5,346.7z"/>
		<path d="M204.1,353.3v0.5h-2.5v1.8h2.1v0.5h-2.1v2.2h2.6v0.5h-3.1v-5.4H204.1z"/>
		<path d="M207.5,354.3c-0.3-0.5-0.6-0.6-0.9-0.6c-0.5,0-0.8,0.4-0.8,0.8c0,1.3,2.4,0.9,2.4,2.7c0,1-0.7,1.6-1.5,1.6
			c-0.9,0-1.5-0.6-1.7-1.5l0.4-0.3c0.2,0.6,0.5,1.2,1.2,1.2c0.6,0,1-0.4,1-1.1c0-1.3-2.3-1-2.3-2.6c0-0.8,0.6-1.3,1.3-1.3
			c0.8,0,1.1,0.4,1.3,0.8L207.5,354.3z"/>
		<path d="M209.7,356.3v2.4h-0.5v-5.4h1.8c1,0,1.6,0.6,1.6,1.5s-0.6,1.5-1.6,1.5H209.7z M212.1,354.8c0-0.6-0.3-1-1-1h-1.3v2h1.3
			C211.8,355.8,212.1,355.4,212.1,354.8z"/>
		<path d="M216.6,353.3v0.5h-2.5v1.8h2.1v0.5h-2.1v2.2h2.6v0.5h-3.1v-5.4H216.6z"/>
		<path d="M219.8,353.3h0.5v3.8c0,1.1-0.7,1.6-1.5,1.6c-1,0-1.4-0.7-1.5-1.4l0.5-0.1c0.1,0.6,0.4,1,1,1c0.6,0,1-0.3,1-1.1V353.3z"/>
		<path d="M226.1,356c0,1.7-1.1,2.8-2.4,2.8c-1.3,0-2.4-1.1-2.4-2.8c0-1.7,1.1-2.8,2.4-2.8C225,353.2,226.1,354.3,226.1,356z
			 M221.9,356c0,1.5,0.8,2.3,1.8,2.3c1,0,1.8-0.8,1.8-2.3s-0.8-2.3-1.8-2.3C222.7,353.7,221.9,354.5,221.9,356z"/>
	</g>
	<g>
		<path d="M274.7,390c-0.2-0.5-0.5-0.6-0.9-0.6c-0.5,0-0.7,0.4-0.7,0.8c0,1.3,2.3,0.9,2.3,2.6c0,0.9-0.7,1.5-1.5,1.5
			c-0.9,0-1.4-0.6-1.6-1.4l0.4-0.3c0.2,0.6,0.5,1.2,1.2,1.2c0.6,0,1-0.4,1-1.1c0-1.3-2.3-1-2.3-2.6c0-0.8,0.6-1.3,1.2-1.3
			c0.8,0,1,0.4,1.3,0.8L274.7,390z"/>
		<path d="M278.2,388.9l1.9,5.3h-0.5l-0.5-1.5h-2.2l-0.5,1.5h-0.5l1.9-5.3H278.2z M277,392.3h1.9l-0.9-2.6L277,392.3z"/>
		<path d="M284.5,388.9v5.3h-0.6l-2.6-4.5v4.5h-0.5v-5.3h0.6l2.6,4.5v-4.5H284.5z"/>
		<path d="M268.1,400.7h-1v2.6h-0.5V398h1.7c0.9,0,1.5,0.4,1.5,1.3c0,0.8-0.4,1.2-1.2,1.3l1.6,2.6h-0.6L268.1,400.7z M267.1,398.5
			v1.7h1.2c0.7,0,1-0.3,1-0.9c0-0.6-0.4-0.9-1-0.9H267.1z"/>
		<path d="M273.1,398l1.9,5.3h-0.5l-0.5-1.5h-2.2l-0.5,1.5h-0.5l1.9-5.3H273.1z M272,401.3h1.9l-0.9-2.6L272,401.3z"/>
		<path d="M276.4,398l1.6,4l1.6-4h0.6v5.3h-0.5V399l-1.5,3.8h-0.3l-1.5-3.8v4.3h-0.5V398H276.4z"/>
		<path d="M285.9,400.6c0,1.7-1.1,2.7-2.3,2.7s-2.3-1-2.3-2.7c0-1.7,1.1-2.7,2.3-2.7S285.9,399,285.9,400.6z M281.8,400.6
			c0,1.5,0.8,2.2,1.8,2.2s1.8-0.8,1.8-2.2c0-1.5-0.8-2.2-1.8-2.2S281.8,399.2,281.8,400.6z M283.5,396.5h0.7l-0.9,1.1H283
			L283.5,396.5z"/>
		<path d="M290.6,398v5.3H290l-2.6-4.5v4.5h-0.5V398h0.6l2.6,4.5V398H290.6z"/>
	</g>
	<g>
		<path d="M245.1,355.9v5.7h2.9v0.6h-3.5v-6.2H245.1z"/>
		<path d="M251.4,355.9l2.3,6.2H253l-0.6-1.8h-2.6l-0.6,1.8h-0.6l2.3-6.2H251.4z M250,359.8h2.2l-1.1-3.1L250,359.8z"/>
		<path d="M235,371.1c-0.3,1.1-1.2,1.8-2.4,1.8c-1.4,0-2.8-1-2.8-3.2c0-2.2,1.4-3.2,2.8-3.2c1.2,0,2,0.7,2.4,1.8l-0.6,0.2
			c-0.2-0.9-0.8-1.4-1.8-1.4c-1.2,0-2.1,0.9-2.1,2.6c0,1.7,0.9,2.6,2.1,2.6c1,0,1.5-0.5,1.8-1.4L235,371.1z"/>
		<path d="M236.8,372.9h-0.6v-6.2h0.6V372.9z"/>
		<path d="M240.9,367.8c-0.3-0.6-0.7-0.7-1-0.7c-0.6,0-0.9,0.5-0.9,0.9c0,1.5,2.7,1,2.7,3.1c0,1.1-0.8,1.8-1.8,1.8
			c-1,0-1.7-0.7-1.9-1.7l0.5-0.3c0.2,0.7,0.5,1.4,1.4,1.4c0.7,0,1.2-0.4,1.2-1.3c0-1.6-2.7-1.2-2.7-3c0-0.9,0.7-1.5,1.5-1.5
			c0.9,0,1.2,0.4,1.5,1L240.9,367.8z"/>
		<path d="M242.2,366.6h4.3v0.6h-1.9v5.7h-0.6v-5.7h-1.9V366.6z"/>
		<path d="M251.1,366.6v0.6h-2.9v2.1h2.4v0.6h-2.4v2.5h3v0.6h-3.6v-6.2H251.1z"/>
		<path d="M254.1,369.8H253v3.1h-0.6v-6.2h2c1.1,0,1.8,0.5,1.8,1.6c0,0.9-0.5,1.4-1.4,1.6l1.9,3.1h-0.7L254.1,369.8z M253,367.2v2.1
			h1.4c0.8,0,1.2-0.3,1.2-1c0-0.7-0.4-1-1.2-1H253z"/>
		<path d="M262,366.6v6.2h-0.7l-3.1-5.3v5.3h-0.6v-6.2h0.7l3.1,5.3v-5.3H262z"/>
		<path d="M265.7,366.6l2.3,6.2h-0.6l-0.6-1.8h-2.6l-0.6,1.8h-0.6l2.3-6.2H265.7z M264.3,370.5h2.2l-1.1-3.1L264.3,370.5z"/>
	</g>
	<rect x="414.9" y="166.3" class="st6" width="78.1" height="13"/>
	<text transform="matrix(1 0 0 1 419.7647 174.8259)" class="st20 st21">LAS CONDES</text>
	<g>
		<path d="M291.9,210.6v3.1h-0.6v-6.9h2.3c1.2,0,2,0.7,2,1.9s-0.8,1.9-2,1.9H291.9z M294.9,208.7c0-0.7-0.4-1.3-1.3-1.3h-1.7v2.6
			h1.7C294.6,210,294.9,209.4,294.9,208.7z"/>
		<path d="M298.7,210.3h-1.3v3.4h-0.6v-6.9h2.2c1.2,0,2,0.6,2,1.7c0,1-0.6,1.6-1.5,1.7l2.1,3.4h-0.7L298.7,210.3z M297.4,207.4v2.3
			h1.5c0.9,0,1.3-0.3,1.3-1.1c0-0.8-0.5-1.1-1.3-1.1H297.4z"/>
		<path d="M308.2,210.2c0,2.2-1.4,3.5-3,3.5s-3-1.3-3-3.5c0-2.2,1.4-3.5,3-3.5S308.2,208.1,308.2,210.2z M302.8,210.2
			c0,1.9,1,2.9,2.3,2.9s2.3-1,2.3-2.9c0-1.9-1-2.9-2.3-2.9S302.8,208.3,302.8,210.2z"/>
		<path d="M314,206.8l-2.4,6.9h-0.7l-2.4-6.9h0.7l2.1,5.9l2.1-5.9H314z"/>
		<path d="M315.7,213.7H315v-6.9h0.6V213.7z"/>
		<path d="M319.1,206.8c1.8,0,3.1,1.3,3.1,3.4c0,2.1-1.4,3.4-3.1,3.4h-1.8v-6.9H319.1z M318,207.4v5.7h1.2c1.3,0,2.4-0.9,2.4-2.8
			c0-2-1.2-2.8-2.4-2.8H318z"/>
		<path d="M327.4,206.8v0.6h-3.2v2.3h2.6v0.6h-2.6v2.7h3.3v0.6h-4v-6.9H327.4z"/>
		<path d="M333.6,206.8v6.9h-0.8l-3.4-5.8v5.8h-0.6v-6.9h0.8l3.4,5.8v-5.8H333.6z"/>
		<path d="M340.5,211.8c-0.3,1.2-1.3,2-2.6,2c-1.6,0-3-1.1-3-3.5c0-2.4,1.5-3.5,3-3.5c1.3,0,2.2,0.8,2.6,2l-0.6,0.2
			c-0.3-1-0.9-1.5-2-1.5c-1.4,0-2.4,1-2.4,2.9c0,1.9,1,2.9,2.4,2.9c1.1,0,1.7-0.6,2-1.5L340.5,211.8z"/>
		<path d="M342.5,213.7h-0.6v-6.9h0.6V213.7z"/>
		<path d="M346.5,206.8l2.5,6.9h-0.7l-0.7-2h-2.8l-0.7,2h-0.7l2.5-6.9H346.5z M345,211.1h2.4l-1.2-3.4L345,211.1z"/>
	</g>
	<rect x="408.1" y="63.4" class="st6" width="88.4" height="13"/>
	<text transform="matrix(1 0 0 1 409.6491 71.8637)" class="st20 st21">LO BARNECHEA</text>
	<rect x="334.7" y="117.4" class="st6" width="88.4" height="13"/>
	<text transform="matrix(1 0 0 1 351.9129 125.915)" class="st20 st21">VITACURA</text>
	<g>
		<path d="M252.7,108.5l-2.9,5.8l-0.5-0.3l1.4-2.8l-3-1.5l-1.4,2.8l-0.5-0.3l2.9-5.8l0.5,0.3l-1.2,2.5l3,1.5l1.2-2.5L252.7,108.5z"
			/>
		<path d="M254.1,109.2l0.5,0.3l-2,4c-0.4,0.7-0.2,1.6,0.8,2.1c1,0.5,1.8,0.1,2.1-0.6l2-4l0.5,0.3l-2,4c-0.6,1.3-1.9,1.5-3,0.9
			c-1.1-0.5-1.7-1.6-1-2.9L254.1,109.2z"/>
		<path d="M262.7,113.5l-0.3,0.5l-2.7-1.4l-1,1.9l2.2,1.1l-0.3,0.5l-2.2-1.1l-1.2,2.3l2.8,1.4l-0.3,0.5l-3.4-1.7l2.9-5.8
			L262.7,113.5z"/>
		<path d="M266.2,120.6c-0.8,0.9-1.9,1.1-3,0.6c-1.3-0.7-2.1-2.2-1.1-4.3c1-2,2.7-2.4,4.1-1.7c1.1,0.6,1.6,1.6,1.4,2.8l-0.6-0.1
			c0.2-0.9-0.1-1.7-1-2.1c-1.2-0.6-2.4-0.1-3.2,1.5c-0.8,1.6-0.4,2.9,0.8,3.5c0.9,0.4,1.7,0.2,2.3-0.5L266.2,120.6z"/>
		<path d="M273.6,118.9l-2.9,5.8l-0.5-0.3l1.4-2.8l-3-1.5l-1.4,2.8l-0.5-0.3l2.9-5.8l0.5,0.3l-1.2,2.5l3,1.5l1.2-2.5L273.6,118.9z"
			/>
		<path d="M275,119.6l0.5,0.3l-2,4c-0.4,0.7-0.2,1.6,0.8,2.1c1,0.5,1.8,0.1,2.1-0.6l2-4l0.5,0.3l-2,4c-0.6,1.3-1.9,1.5-3,0.9
			c-1.1-0.5-1.7-1.6-1-2.9L275,119.6z"/>
		<path d="M280.5,126l-1.1-0.5l-1.4,2.9l-0.5-0.3l2.9-5.8l1.9,0.9c1,0.5,1.4,1.3,0.9,2.3c-0.4,0.9-1.1,1.1-2,0.8l0.4,3.8l-0.6-0.3
			L280.5,126z M280.6,123.1l-1,1.9l1.3,0.6c0.7,0.4,1.3,0.3,1.6-0.4c0.3-0.7,0.1-1.2-0.7-1.5L280.6,123.1z"/>
		<path d="M287.5,125.9l-0.8,6.9l-0.6-0.3l0.2-1.9l-2.4-1.2l-1.4,1.4l-0.6-0.3l5-4.8L287.5,125.9z M284.4,128.9l2,1l0.4-3.4
			L284.4,128.9z"/>
		<path d="M292.3,128.3c1,0.5,1.3,1.4,0.9,2.3c-0.3,0.5-0.8,0.8-1.3,0.8c0.5,0.5,0.7,1.2,0.3,2c-0.5,1-1.5,1.3-2.6,0.8l-2-1l2.9-5.8
			L292.3,128.3z M290.7,128.1l-1,1.9l1.3,0.7c0.7,0.3,1.2,0.2,1.5-0.4c0.3-0.7,0.1-1.2-0.6-1.5L290.7,128.1z M288.4,132.9l1.3,0.7
			c0.8,0.4,1.5,0.3,1.9-0.5c0.4-0.9,0.1-1.4-0.7-1.8l-1.3-0.7L288.4,132.9z"/>
		<path d="M297.3,130.8l-0.8,6.9l-0.6-0.3l0.2-1.9l-2.4-1.2l-1.4,1.4l-0.6-0.3l5-4.8L297.3,130.8z M294.3,133.8l2,1l0.4-3.4
			L294.3,133.8z"/>
	</g>
	<rect x="383.2" y="227.9" class="st6" width="78.1" height="13"/>
	<text transform="matrix(1 0 0 1 397.6641 236.3922)" class="st20 st21">LA REINA</text>
	<rect x="222" y="240.6" class="st6" width="78.1" height="13"/>
	<text transform="matrix(1 0 0 1 233.471 249.1222)" class="st20 st21">SANTIAGO</text>
	<rect x="75.3" y="350.8" class="st6" width="78.1" height="13"/>
	<text transform="matrix(1 0 0 1 97.1317 359.276)" class="st20 st21">MAIPÚ</text>
	<rect x="41.2" y="220" class="st6" width="78.1" height="13"/>
	<text transform="matrix(1 0 0 1 50.8394 228.5103)" class="st20 st21">PUDAHUEL</text>
	<rect x="113.1" y="158.2" class="st6" width="78.1" height="13"/>
	<text transform="matrix(1 0 0 1 133.2033 166.7015)" class="st20 st21">RENCA</text>
	<g>
		<path d="M165.3,227.8v6.2h3.2v0.6h-3.8v-6.8H165.3z"/>
		<path d="M175.1,231.2c0,2.2-1.4,3.5-3,3.5c-1.6,0-3-1.3-3-3.5c0-2.2,1.4-3.5,3-3.5C173.7,227.7,175.1,229.1,175.1,231.2z
			 M169.7,231.2c0,1.9,1,2.9,2.3,2.9c1.3,0,2.3-1,2.3-2.9s-1-2.9-2.3-2.9C170.8,228.3,169.7,229.3,169.7,231.2z"/>
		<path d="M155.8,239.7v3.1h-0.6v-6.8h2.3c1.2,0,2,0.7,2,1.9s-0.8,1.9-2,1.9H155.8z M158.8,237.8c0-0.7-0.4-1.3-1.3-1.3h-1.7v2.6
			h1.7C158.5,239.1,158.8,238.5,158.8,237.8z"/>
		<path d="M162.6,239.4h-1.3v3.4h-0.6v-6.8h2.2c1.2,0,2,0.6,2,1.7c0,1-0.6,1.6-1.5,1.7l2.1,3.4h-0.7L162.6,239.4z M161.3,236.5v2.2
			h1.5c0.9,0,1.3-0.3,1.3-1.1c0-0.8-0.5-1.1-1.3-1.1H161.3z"/>
		<path d="M169.2,235.9l2.5,6.8H171l-0.7-1.9h-2.8l-0.7,1.9h-0.7l2.5-6.8H169.2z M167.7,240.2h2.4l-1.2-3.4L167.7,240.2z"/>
		<path d="M174.4,235.9c1.8,0,3.1,1.3,3.1,3.4c0,2.1-1.3,3.4-3.1,3.4h-1.8v-6.8H174.4z M173.2,236.5v5.6h1.2c1.3,0,2.4-0.8,2.4-2.8
			c0-2-1.2-2.8-2.4-2.8H173.2z"/>
		<path d="M184.5,239.4c0,2.2-1.4,3.5-3,3.5s-3-1.3-3-3.5c0-2.2,1.4-3.5,3-3.5S184.5,237.2,184.5,239.4z M179.2,239.4
			c0,1.9,1,2.9,2.3,2.9c1.3,0,2.3-1,2.3-2.9c0-1.9-1-2.9-2.3-2.9C180.3,236.5,179.2,237.4,179.2,239.4z"/>
	</g>
	<g>
		<path d="M267.4,165.9h-1.2v3.2h-0.6v-6.4h2.1c1.1,0,1.8,0.5,1.8,1.6c0,0.9-0.5,1.5-1.4,1.6l2,3.2h-0.7L267.4,165.9z M266.2,163.2
			v2.1h1.4c0.8,0,1.3-0.3,1.3-1.1s-0.4-1.1-1.3-1.1H266.2z"/>
		<path d="M274.6,162.6v0.6h-3v2.1h2.5v0.6h-2.5v2.6h3.1v0.6H271v-6.4H274.6z"/>
		<path d="M280.8,167.3c-0.3,1.1-1.2,1.8-2.4,1.8c-1.4,0-2.8-1.1-2.8-3.3c0-2.2,1.4-3.3,2.8-3.3c1.2,0,2.1,0.7,2.4,1.8l-0.6,0.2
			c-0.2-0.9-0.8-1.4-1.8-1.4c-1.3,0-2.2,1-2.2,2.7c0,1.7,0.9,2.7,2.2,2.7c1,0,1.6-0.5,1.8-1.4L280.8,167.3z"/>
		<path d="M287.4,165.8c0,2-1.3,3.3-2.8,3.3s-2.8-1.2-2.8-3.3s1.3-3.3,2.8-3.3S287.4,163.8,287.4,165.8z M282.4,165.8
			c0,1.8,1,2.7,2.2,2.7c1.2,0,2.2-0.9,2.2-2.7s-1-2.7-2.2-2.7C283.4,163.1,282.4,164,282.4,165.8z"/>
		<path d="M289.2,162.6v5.8h3v0.6h-3.6v-6.4H289.2z"/>
		<path d="M296.8,162.6v0.6h-3v2.1h2.5v0.6h-2.5v2.6h3.1v0.6h-3.7v-6.4H296.8z"/>
		<path d="M297.8,162.6h4.4v0.6h-1.9v5.8h-0.6v-5.8h-1.9V162.6z"/>
		<path d="M304.7,162.6l2.3,6.4h-0.6l-0.6-1.8h-2.6l-0.6,1.8h-0.6l2.3-6.4H304.7z M303.3,166.6h2.2l-1.1-3.2L303.3,166.6z"/>
	</g>
	<g>
		<path d="M229.8,168.1l-0.3-0.3l3.7-2.8l0.3,0.3L229.8,168.1z"/>
		<path d="M236.1,168.8l-3.7,2.8l-0.3-0.4l1.7-4.2l-3.1,2.4l-0.3-0.3l3.7-2.8l0.3,0.4l-1.8,4.2l3.1-2.4L236.1,168.8z"/>
		<path d="M237.5,170.7c0.7,1,0.6,2.2-0.6,3.1s-2.4,0.7-3.1-0.3l-0.7-1l3.7-2.8L237.5,170.7z M236.7,170.3l-3,2.3l0.5,0.6
			c0.5,0.7,1.5,1,2.5,0.2s1-1.8,0.5-2.5L236.7,170.3z"/>
		<path d="M240.9,175.1l-0.3,0.2l-1.3-1.7l-1.2,0.9l1.1,1.4l-0.3,0.2l-1.1-1.4l-1.5,1.1l1.4,1.8l-0.3,0.2l-1.6-2.1l3.7-2.8
			L240.9,175.1z"/>
		<path d="M239.7,177.8L238,179l-0.3-0.3l3.7-2.8l1,1.3c0.5,0.7,0.4,1.4-0.2,1.8c-0.6,0.5-1.3,0.4-1.8-0.3L239.7,177.8z
			 M241.9,178.6c0.4-0.3,0.5-0.7,0.2-1.2l-0.7-0.9l-1.4,1l0.7,0.9C241.1,178.9,241.5,178.9,241.9,178.6z"/>
		<path d="M245.3,180.9l-0.3,0.2l-1.3-1.7l-1.2,0.9l1.1,1.4l-0.3,0.2l-1.1-1.4l-1.5,1.1l1.4,1.8l-0.3,0.2l-1.6-2.1l3.7-2.8
			L245.3,180.9z"/>
		<path d="M247.8,184.3l-3.7,2.8l-0.3-0.4l1.7-4.2l-3.1,2.4l-0.3-0.3l3.7-2.8l0.3,0.4l-1.8,4.2l3.1-2.4L247.8,184.3z"/>
		<path d="M249.2,186.2c0.7,1,0.6,2.2-0.6,3.1c-1.2,0.9-2.4,0.7-3.1-0.3l-0.7-1l3.7-2.8L249.2,186.2z M248.4,185.8l-3,2.3l0.5,0.6
			c0.5,0.7,1.5,1,2.5,0.2s1-1.8,0.5-2.5L248.4,185.8z"/>
		<path d="M252.6,190.6l-0.3,0.2l-1.3-1.7l-1.2,0.9l1.1,1.4l-0.3,0.2l-1.1-1.4l-1.5,1.1l1.4,1.8l-0.3,0.2l-1.6-2.1l3.7-2.8
			L252.6,190.6z"/>
		<path d="M255.1,194l-3.7,2.8l-0.3-0.4l1.7-4.2l-3.1,2.4l-0.3-0.3l3.7-2.8l0.3,0.4l-1.8,4.2l3.1-2.4L255.1,194z"/>
		<path d="M255.3,199.7c-0.8,0.3-1.6,0.1-2.1-0.6c-0.6-0.8-0.6-2.1,0.7-3.1c1.3-1,2.5-0.6,3.1,0.2c0.5,0.7,0.5,1.5,0,2.2l-0.4-0.3
			c0.4-0.5,0.5-1.1,0-1.7c-0.6-0.7-1.5-0.8-2.5-0.1c-1,0.8-1.2,1.7-0.6,2.4c0.4,0.6,1,0.7,1.6,0.4L255.3,199.7z"/>
		<path d="M255.1,201.5l-0.3-0.3l3.7-2.8l0.3,0.3L255.1,201.5z"/>
		<path d="M260.4,200.9l-2.7,4.1l-0.3-0.4l0.8-1.2L257,202l-1.3,0.4l-0.3-0.4l4.7-1.5L260.4,200.9z M257.4,201.8l1,1.3l1.4-2
			L257.4,201.8z"/>
	</g>
	<g>
		<path d="M216.2,133.3c-0.3,1-1.1,1.7-2.2,1.7c-1.3,0-2.6-1-2.6-3c0-2,1.3-3,2.6-3c1.1,0,1.9,0.7,2.2,1.7l-0.5,0.2
			c-0.2-0.8-0.8-1.3-1.7-1.3c-1.2,0-2,0.9-2,2.5c0,1.6,0.8,2.5,2,2.5c0.9,0,1.4-0.5,1.7-1.3L216.2,133.3z"/>
		<path d="M222.2,132c0,1.9-1.2,3-2.6,3c-1.4,0-2.6-1.1-2.6-3c0-1.9,1.2-3,2.6-3C221,129,222.2,130.1,222.2,132z M217.6,132
			c0,1.6,0.9,2.5,2,2.5c1.1,0,2-0.8,2-2.5c0-1.6-0.9-2.5-2-2.5C218.5,129.5,217.6,130.3,217.6,132z"/>
		<path d="M227.4,129.1v5.9h-0.7l-2.9-5v5h-0.6v-5.9h0.7l2.9,5v-5H227.4z"/>
		<path d="M233.2,133.3c-0.3,1-1.1,1.7-2.2,1.7c-1.3,0-2.6-1-2.6-3c0-2,1.3-3,2.6-3c1.1,0,1.9,0.7,2.2,1.7l-0.5,0.2
			c-0.2-0.8-0.8-1.3-1.7-1.3c-1.2,0-2,0.9-2,2.5c0,1.6,0.8,2.5,2,2.5c0.9,0,1.4-0.5,1.7-1.3L233.2,133.3z"/>
		<path d="M238.5,129.1v5.9h-0.6v-2.8h-3v2.8h-0.6v-5.9h0.6v2.5h3v-2.5H238.5z"/>
		<path d="M241.8,129.1l2.1,5.9h-0.6l-0.6-1.7h-2.4l-0.6,1.7h-0.6l2.1-5.9H241.8z M240.6,132.7h2.1l-1-2.9L240.6,132.7z"/>
		<path d="M245.3,129.1v5.3h2.7v0.5h-3.3v-5.9H245.3z"/>
		<path d="M249.5,127.4h0.8l-1,1.2h-0.4L249.5,127.4z M249.6,134.9H249v-5.9h0.6V134.9z"/>
	</g>
	<rect x="119" y="106.5" class="st6" width="78.1" height="13"/>
	<text transform="matrix(1 0 0 1 128.1104 114.9839)" class="st20 st21">QUILICURA</text>
	<g>
		<path d="M189.1,200.3c0,1-0.3,1.7-0.7,2.3l0.6,0.6l-0.4,0.4L188,203c-0.5,0.4-1.1,0.6-1.7,0.6c-1.5,0-2.9-1.3-2.9-3.3
			c0-2.1,1.3-3.3,2.9-3.3C187.8,196.9,189.1,198.2,189.1,200.3z M187.3,201.5l0.7,0.7c0.3-0.5,0.5-1.1,0.5-1.9c0-1.8-1-2.8-2.2-2.8
			c-1.2,0-2.2,0.9-2.2,2.8s1,2.8,2.2,2.8c0.5,0,0.9-0.1,1.3-0.4l-0.7-0.7L187.3,201.5z"/>
		<path d="M190.4,197h0.6v4.5c0,0.8,0.5,1.5,1.6,1.5s1.6-0.7,1.6-1.5V197h0.6v4.4c0,1.4-1.1,2.2-2.2,2.2c-1.2,0-2.2-0.7-2.2-2.2V197
			z"/>
		<path d="M197,203.5h-0.6V197h0.6V203.5z"/>
		<path d="M203.1,197v6.5h-0.7l-3.2-5.5v5.5h-0.6V197h0.7l3.2,5.6V197H203.1z"/>
		<path d="M204.1,197h4.5v0.6h-2v6H206v-6h-2V197z"/>
		<path d="M211.1,197l2.4,6.5h-0.6l-0.7-1.9h-2.7l-0.7,1.9h-0.6l2.4-6.5H211.1z M209.7,201.1h2.3l-1.1-3.3L209.7,201.1z"/>
		<path d="M185.7,208.2v6.5H185l-3.2-5.5v5.5h-0.6v-6.5h0.7l3.2,5.6v-5.6H185.7z"/>
		<path d="M192.6,211.5c0,2.1-1.3,3.3-2.9,3.3c-1.5,0-2.9-1.3-2.9-3.3c0-2.1,1.3-3.3,2.9-3.3C191.3,208.1,192.6,209.4,192.6,211.5z
			 M187.5,211.5c0,1.8,1,2.8,2.2,2.8c1.2,0,2.2-0.9,2.2-2.8s-1-2.8-2.2-2.8C188.5,208.7,187.5,209.6,187.5,211.5z"/>
		<path d="M195.7,211.5h-1.2v3.2h-0.6v-6.5h2.1c1.2,0,1.9,0.5,1.9,1.7c0,1-0.5,1.5-1.4,1.6l2,3.3h-0.7L195.7,211.5z M194.4,208.8
			v2.1h1.4c0.8,0,1.3-0.3,1.3-1.1s-0.4-1.1-1.3-1.1H194.4z"/>
		<path d="M200.5,208.2l1.9,4.9l1.9-4.9h0.8v6.5h-0.6v-5.3l-1.9,4.7h-0.4l-1.9-4.7v5.3h-0.6v-6.5H200.5z"/>
		<path d="M209.1,208.2l2.4,6.5h-0.6l-0.7-1.9h-2.7l-0.7,1.9h-0.6l2.4-6.5H209.1z M207.7,212.3h2.3l-1.1-3.3L207.7,212.3z"/>
		<path d="M213,208.2v6h3.1v0.6h-3.7v-6.5H213z"/>
	</g>
	<g>
		<path d="M128.9,191.7c-0.3,1.1-1.1,1.8-2.3,1.8c-1.4,0-2.7-1-2.7-3.2c0-2.1,1.3-3.2,2.7-3.2c1.2,0,2,0.7,2.3,1.8l-0.6,0.2
			c-0.2-0.9-0.8-1.4-1.8-1.4c-1.2,0-2.1,0.9-2.1,2.6c0,1.7,0.9,2.6,2.1,2.6c0.9,0,1.5-0.5,1.8-1.4L128.9,191.7z"/>
		<path d="M133.6,187.2v0.5h-2.9v2.1h2.4v0.5h-2.4v2.5h3v0.5h-3.6v-6.2H133.6z"/>
		<path d="M136.6,190.4h-1.2v3.1h-0.6v-6.2h2c1.1,0,1.8,0.5,1.8,1.6c0,0.9-0.5,1.4-1.4,1.5l1.9,3.1h-0.7L136.6,190.4z M135.4,187.8
			v2h1.4c0.8,0,1.2-0.3,1.2-1s-0.4-1-1.2-1H135.4z"/>
		<path d="M141.8,190.4h-1.2v3.1h-0.6v-6.2h2c1.1,0,1.8,0.5,1.8,1.6c0,0.9-0.5,1.4-1.4,1.5l1.9,3.1h-0.7L141.8,190.4z M140.7,187.8
			v2h1.4c0.8,0,1.2-0.3,1.2-1s-0.4-1-1.2-1H140.7z"/>
		<path d="M150.3,190.3c0,2-1.3,3.2-2.7,3.2c-1.4,0-2.7-1.2-2.7-3.2s1.3-3.2,2.7-3.2C149.1,187.2,150.3,188.4,150.3,190.3z
			 M145.5,190.3c0,1.7,0.9,2.6,2.1,2.6c1.2,0,2.1-0.9,2.1-2.6c0-1.7-0.9-2.6-2.1-2.6C146.5,187.7,145.5,188.6,145.5,190.3z"/>
		<path d="M130.8,197.8v6.2h-0.7l-3.1-5.2v5.2h-0.6v-6.2h0.7l3.1,5.3v-5.3H130.8z"/>
		<path d="M134.4,197.8l2.2,6.2H136l-0.6-1.8h-2.5l-0.6,1.8h-0.6l2.2-6.2H134.4z M133,201.7h2.2l-1.1-3.1L133,201.7z"/>
		<path d="M141.2,197.8l-2.2,6.2h-0.6l-2.2-6.2h0.6l1.9,5.4l1.9-5.4H141.2z"/>
		<path d="M142.7,204h-0.6v-6.2h0.6V204z"/>
		<path d="M146.3,197.8l2.2,6.2h-0.6l-0.6-1.8h-2.5l-0.6,1.8h-0.6l2.2-6.2H146.3z M144.9,201.7h2.2l-1.1-3.1L144.9,201.7z"/>
	</g>
	<g>
		<path d="M52.3,436.8l1.3,1.5l-0.3,0.3l-3-3.4l1.2-1c0.6-0.5,1.3-0.5,1.8,0.1s0.4,1.3-0.2,1.8L52.3,436.8z M53,434.5
			c-0.3-0.4-0.7-0.5-1.2-0.1l-0.8,0.7l1.1,1.3l0.8-0.7C53.4,435.3,53.3,434.9,53,434.5z"/>
		<path d="M54,432l4.2,2.3l-0.3,0.3l-1.2-0.7l-1.4,1.2l0.5,1.3l-0.3,0.3l-1.7-4.5L54,432z M55.1,434.8l1.2-1l-2.1-1.2L55.1,434.8z"
			/>
		<path d="M56.6,429.8c0.9-0.8,2.1-0.7,3,0.4c0.9,1.1,0.8,2.3-0.1,3l-0.9,0.8l-3-3.4L56.6,429.8z M56.3,430.6l2.4,2.8l0.6-0.5
			c0.6-0.5,0.8-1.5,0-2.4c-0.8-1-1.8-0.9-2.4-0.4L56.3,430.6z"/>
		<path d="M61.2,428.8l-0.6,0.6L62,431l-0.3,0.3l-3-3.4l1.1-0.9c0.6-0.5,1.2-0.6,1.7,0c0.4,0.5,0.4,1,0,1.5l2.5,0.8l-0.4,0.3
			L61.2,428.8z M59.3,427.9l1,1.1l0.8-0.7c0.4-0.4,0.5-0.7,0.2-1.1c-0.3-0.4-0.7-0.4-1.1,0L59.3,427.9z"/>
		<path d="M63.5,423.7l0.3,0.3l-1.6,1.4l1,1.1l1.3-1.1l0.3,0.3l-1.3,1.1l1.2,1.4l1.6-1.4l0.3,0.3l-2,1.7l-3-3.4L63.5,423.7z"/>
		<path d="M53.1,440.6l3,3.4l-0.3,0.3l-1.4-1.7l-1.7,1.5l1.4,1.7l-0.3,0.3l-3-3.4l0.3-0.3l1.3,1.4l1.7-1.5l-1.3-1.4L53.1,440.6z"/>
		<path d="M53.9,439.9l0.3-0.3l2,2.3c0.4,0.4,1,0.6,1.5,0.1c0.6-0.5,0.5-1.1,0.2-1.5l-2-2.3l0.3-0.3l2,2.3c0.6,0.7,0.4,1.6-0.2,2.1
			c-0.6,0.5-1.5,0.6-2.1-0.1L53.9,439.9z"/>
		<path d="M59.5,438.1l-0.6,0.6l1.5,1.7l-0.3,0.3l-3-3.4l1.1-0.9c0.6-0.5,1.2-0.6,1.7,0c0.4,0.5,0.4,1,0,1.5l2.5,0.8l-0.4,0.3
			L59.5,438.1z M57.6,437.2l1,1.1l0.8-0.7c0.4-0.4,0.5-0.7,0.2-1.1c-0.3-0.4-0.7-0.4-1.1,0L57.6,437.2z"/>
		<path d="M59.7,434.9l2.3-2l0.3,0.3l-1,0.9l2.7,3.1l-0.3,0.3l-2.7-3.1l-1,0.9L59.7,434.9z"/>
		<path d="M63.4,431.7l4.2,2.3l-0.3,0.3l-1.2-0.7l-1.4,1.2l0.5,1.3l-0.3,0.3l-1.7-4.5L63.4,431.7z M64.5,434.5l1.2-1l-2.1-1.2
			L64.5,434.5z"/>
		<path d="M65.9,429.4c0.9-0.8,2.1-0.7,3,0.4c0.9,1.1,0.8,2.3-0.1,3l-0.9,0.8l-3-3.4L65.9,429.4z M65.6,430.2l2.4,2.8l0.6-0.5
			c0.6-0.5,0.8-1.5,0-2.4c-0.8-1-1.8-0.9-2.4-0.4L65.6,430.2z"/>
		<path d="M72.5,426.7c0.9,1.1,0.8,2.3,0,3s-2.1,0.6-3-0.4c-0.9-1.1-0.8-2.3,0-3S71.5,425.7,72.5,426.7z M69.8,429
			c0.8,1,1.8,1,2.4,0.4c0.6-0.6,0.7-1.5-0.1-2.4s-1.8-1-2.4-0.4C69.1,427.2,69,428.1,69.8,429z"/>
	</g>
	<g>
		<path d="M165.9,321.1c-0.3,1-1.1,1.6-2.2,1.6c-1.3,0-2.5-0.9-2.5-2.9c0-2,1.2-2.9,2.5-2.9c1.1,0,1.9,0.6,2.2,1.6l-0.5,0.2
			c-0.2-0.8-0.8-1.3-1.6-1.3c-1.1,0-2,0.9-2,2.4c0,1.6,0.8,2.4,2,2.4c0.9,0,1.4-0.5,1.6-1.3L165.9,321.1z"/>
		<path d="M170.3,316.9v0.5h-2.7v1.9h2.2v0.5h-2.2v2.3h2.8v0.5h-3.3v-5.7H170.3z"/>
		<path d="M173.1,319.8H172v2.8h-0.5v-5.7h1.8c1,0,1.6,0.5,1.6,1.5c0,0.8-0.5,1.3-1.3,1.4l1.8,2.9h-0.6L173.1,319.8z M172,317.4v1.9
			h1.3c0.7,0,1.1-0.3,1.1-0.9c0-0.7-0.4-0.9-1.1-0.9H172z"/>
		<path d="M178,319.8h-1.1v2.8h-0.5v-5.7h1.8c1,0,1.6,0.5,1.6,1.5c0,0.8-0.5,1.3-1.3,1.4l1.8,2.9h-0.6L178,319.8z M176.9,317.4v1.9
			h1.3c0.7,0,1.1-0.3,1.1-0.9c0-0.7-0.4-0.9-1.1-0.9H176.9z"/>
		<path d="M181.8,322.6h-0.5v-5.7h0.5V322.6z"/>
		<path d="M183.6,316.9v5.2h2.7v0.5h-3.2v-5.7H183.6z"/>
		<path d="M187.8,316.9v5.2h2.7v0.5h-3.2v-5.7H187.8z"/>
		<path d="M196,319.8c0,1.8-1.2,2.9-2.5,2.9s-2.5-1.1-2.5-2.9c0-1.8,1.2-2.9,2.5-2.9S196,317.9,196,319.8z M191.5,319.8
			c0,1.6,0.9,2.4,2,2.4c1.1,0,2-0.8,2-2.4c0-1.6-0.9-2.4-2-2.4C192.4,317.3,191.5,318.2,191.5,319.8z"/>
		<path d="M199.4,318c-0.3-0.5-0.6-0.7-1-0.7c-0.5,0-0.8,0.4-0.8,0.8c0,1.4,2.5,1,2.5,2.8c0,1-0.7,1.7-1.6,1.7c-1,0-1.6-0.7-1.8-1.5
			l0.5-0.3c0.2,0.7,0.5,1.3,1.3,1.3c0.6,0,1.1-0.4,1.1-1.2c0-1.4-2.5-1.1-2.5-2.8c0-0.9,0.6-1.4,1.3-1.4c0.8,0,1.1,0.4,1.4,0.9
			L199.4,318z"/>
	</g>
	<g>
		<path d="M180.3,259.6v0.5h-2.6v1.9h2.1v0.5h-2.1v2.2h2.7v0.5h-3.2v-5.6H180.3z"/>
		<path d="M183.8,260.7c-0.3-0.5-0.6-0.6-0.9-0.6c-0.5,0-0.8,0.4-0.8,0.8c0,1.4,2.4,0.9,2.4,2.8c0,1-0.7,1.6-1.6,1.6
			c-0.9,0-1.5-0.6-1.7-1.5l0.5-0.3c0.2,0.7,0.5,1.3,1.2,1.3c0.6,0,1-0.4,1-1.1c0-1.4-2.4-1-2.4-2.7c0-0.8,0.6-1.4,1.3-1.4
			c0.8,0,1.1,0.4,1.4,0.9L183.8,260.7z"/>
		<path d="M185,259.6h3.9v0.5h-1.7v5.1h-0.5v-5.1H185V259.6z"/>
		<path d="M191,259.6l2,5.6h-0.5l-0.6-1.6h-2.3l-0.6,1.6h-0.5l2-5.6H191z M189.8,263.1h2l-1-2.8L189.8,263.1z"/>
		<path d="M197.9,263.7c-0.3,1-1,1.6-2.1,1.6c-1.3,0-2.5-0.9-2.5-2.8c0-1.9,1.2-2.8,2.5-2.8c1.1,0,1.8,0.6,2.1,1.6l-0.5,0.2
			c-0.2-0.8-0.7-1.2-1.6-1.2c-1.1,0-1.9,0.8-1.9,2.4c0,1.5,0.8,2.4,1.9,2.4c0.9,0,1.4-0.5,1.6-1.2L197.9,263.7z"/>
		<path d="M199.6,265.2H199v-5.6h0.5V265.2z"/>
		<path d="M205.6,262.4c0,1.8-1.1,2.8-2.4,2.8s-2.4-1.1-2.4-2.8s1.1-2.8,2.4-2.8S205.6,260.6,205.6,262.4z M201.3,262.4
			c0,1.6,0.9,2.4,1.9,2.4s1.9-0.8,1.9-2.4c0-1.6-0.9-2.4-1.9-2.4S201.3,260.8,201.3,262.4z M203.1,258h0.7l-0.9,1.1h-0.4L203.1,258z
			"/>
		<path d="M210.6,259.6v5.6H210l-2.8-4.7v4.7h-0.5v-5.6h0.6l2.8,4.7v-4.7H210.6z"/>
		<path d="M182.5,273.2c-0.3,1-1,1.6-2.1,1.6c-1.3,0-2.5-0.9-2.5-2.8c0-1.9,1.2-2.8,2.5-2.8c1.1,0,1.8,0.6,2.1,1.6l-0.5,0.2
			c-0.2-0.8-0.7-1.2-1.6-1.2c-1.1,0-1.9,0.8-1.9,2.4c0,1.5,0.8,2.4,1.9,2.4c0.9,0,1.4-0.5,1.6-1.2L182.5,273.2z"/>
		<path d="M186.7,269.2v0.5h-2.6v1.9h2.1v0.5h-2.1v2.2h2.7v0.5h-3.2v-5.6H186.7z"/>
		<path d="M191.8,269.2v5.6h-0.6l-2.8-4.7v4.7h-0.5v-5.6h0.6l2.8,4.7v-4.7H191.8z"/>
		<path d="M192.6,269.2h3.9v0.5h-1.7v5.1h-0.5v-5.1h-1.7V269.2z"/>
		<path d="M198.9,272h-1v2.8h-0.5v-5.6h1.8c1,0,1.6,0.5,1.6,1.4c0,0.8-0.5,1.3-1.2,1.4l1.7,2.8h-0.6L198.9,272z M197.9,269.7v1.8
			h1.2c0.7,0,1.1-0.3,1.1-0.9s-0.4-0.9-1.1-0.9H197.9z"/>
		<path d="M204.3,269.2l2,5.6h-0.5l-0.6-1.6h-2.3l-0.6,1.6h-0.5l2-5.6H204.3z M203.1,272.7h2l-1-2.8L203.1,272.7z"/>
		<path d="M207.6,269.2v5.1h2.6v0.5h-3.1v-5.6H207.6z"/>
	</g>
	<g>
		<path d="M322.5,249.7v7.6h-0.8l-3.8-6.4v6.4h-0.7v-7.6h0.8l3.8,6.5v-6.5H322.5z M318,248.4c0.2-0.5,0.6-0.7,1.1-0.7
			c0.7,0,0.9,0.4,1.4,0.4c0.3,0,0.5-0.2,0.7-0.4l0.4,0.3c-0.2,0.5-0.6,0.7-1.1,0.7c-0.7,0-0.9-0.4-1.4-0.4c-0.3,0-0.5,0.2-0.7,0.4
			L318,248.4z"/>
		<path d="M324.4,249.7h0.7v5.2c0,0.9,0.6,1.8,1.9,1.8c1.3,0,1.9-0.8,1.9-1.8v-5.2h0.7v5.2c0,1.7-1.2,2.5-2.6,2.5s-2.6-0.8-2.6-2.5
			V249.7z"/>
		<path d="M336.7,249.7v7.6h-0.8l-3.8-6.4v6.4h-0.7v-7.6h0.8l3.8,6.5v-6.5H336.7z M332.1,248.4c0.2-0.5,0.6-0.7,1.1-0.7
			c0.7,0,0.9,0.4,1.4,0.4c0.3,0,0.5-0.2,0.7-0.4l0.4,0.3c-0.2,0.5-0.6,0.7-1.1,0.7c-0.7,0-0.9-0.4-1.4-0.4c-0.3,0-0.5,0.2-0.7,0.4
			L332.1,248.4z"/>
		<path d="M344.7,253.5c0,2.4-1.6,3.9-3.3,3.9c-1.8,0-3.3-1.5-3.3-3.9c0-2.4,1.6-3.9,3.3-3.9C343.1,249.6,344.7,251.1,344.7,253.5z
			 M338.8,253.5c0,2.1,1.2,3.2,2.6,3.2s2.6-1.1,2.6-3.2c0-2.1-1.2-3.2-2.6-3.2S338.8,251.3,338.8,253.5z"/>
		<path d="M348.6,249.7l2.7,7.6h-0.7l-0.8-2.2h-3.1l-0.8,2.2h-0.7l2.7-7.6H348.6z M347,254.4h2.7l-1.3-3.8L347,254.4z"/>
	</g>
</g>
</svg>
